STARTFONT 2.1
FONT -misc-myfont-medium-r-normal--16-160-75-75-c-80-iso10646-1
SIZE 16 75 75
FONTBOUNDINGBOX 16 16 0 -2
STARTPROPERTIES 2
FONT_ASCENT 14
FONT_DESCENT 2
ENDPROPERTIES
CHARS 2

STARTCHAR A
ENCODING 65
SWIDTH 500 0
DWIDTH 8 0
BBX 8 16 0 -2
BITMAP
00
00
00
00
00
18
24
42
42
7E
42
42
42
42
42
00
ENDCHAR

STARTCHAR あ
ENCODING 12354
SWIDTH 1000 0
DWIDTH 16 0
BBX 16 16 0 -2
BITMAP
0000
0000
0200
02E0
1F00
0640
07E0
06D8
1C84
1584
2704
2604
2E08
3270
0000
0000
ENDCHAR

ENDFONT

